<svg width="8942" height="2325" viewBox="0 0 8942 2325" fill="none" xmlns="http://www.w3.org/2000/svg">
<rect x="41" y="39" width="1193" height="1084" fill="#1F3864"/>
<path d="M1579.01 855C1579.01 1000.25 1403.56 1295.5 1170.5 1295.5C937.436 1295.5 683.998 1162 727.503 857.5C762.004 681.5 923.942 592 1157.01 592C1390.07 592 1579.01 709.749 1579.01 855Z" fill="white"/>
<rect x="1532" y="297" width="1193" height="1076" fill="#FE0000"/>
<rect x="199" y="1153" width="1192" height="1074" fill="#FF6600"/>
<circle cx="1308" cy="1429" r="210" fill="white"/>
<path d="M1828 1064C1828 1188.26 1689.21 1289 1518 1289C1346.79 1289 1450 1172.76 1450 1048.5C1450 924.236 1346.79 839 1518 839C1689.21 839 1828 939.736 1828 1064Z" fill="white"/>
<path d="M1828 1064C1828 1188.26 1689.21 1289 1518 1289C1346.79 1289 1450 1172.76 1450 1048.5C1450 924.236 1346.79 839 1518 839C1689.21 839 1828 939.736 1828 1064Z" fill="white"/>
<path d="M5071.86 468.414L5025.9 471.295C5025.26 444.86 5014.97 431.642 4995.03 431.642C4972.16 431.642 4960.72 451.994 4960.72 492.699C4960.72 516.207 4963.83 532.169 4970.05 540.584C4976.27 548.908 4984.96 553.07 4996.12 553.07C5014.24 553.07 5025.3 541.271 5029.33 517.671L5071.86 520.278C5069.12 542.688 5060.75 559.748 5046.75 571.456C5032.85 583.073 5015.79 588.881 4995.58 588.881C4970.79 588.881 4950.62 580.329 4935.07 563.224C4919.61 546.118 4911.88 522.473 4911.88 492.288C4911.88 464.023 4919.38 440.881 4934.38 422.861C4949.38 404.841 4969.87 395.831 4995.85 395.831C5040.85 395.831 5066.19 420.025 5071.86 468.414ZM5167.63 588.881C5142.39 588.881 5122.86 579.414 5109.05 560.479C5095.23 541.545 5088.33 518.631 5088.33 491.739C5088.33 464.389 5095.32 441.567 5109.32 423.272C5123.31 404.978 5143.26 395.831 5169.14 395.831C5195.3 395.831 5215.01 405.618 5228.28 425.193C5241.63 444.677 5248.31 466.996 5248.31 492.15C5248.31 519.317 5241.45 542.231 5227.73 560.891C5214.01 579.551 5193.98 588.881 5167.63 588.881ZM5168.87 431.642C5145.82 431.642 5134.29 451.857 5134.29 492.288C5134.29 532.809 5145.82 553.07 5168.87 553.07C5191.19 553.07 5202.35 532.855 5202.35 492.425C5202.35 451.903 5191.19 431.642 5168.87 431.642ZM5347.37 588.881C5322.13 588.881 5302.6 579.414 5288.79 560.479C5274.97 541.545 5268.07 518.631 5268.07 491.739C5268.07 464.389 5275.07 441.567 5289.06 423.272C5303.06 404.978 5323 395.831 5348.88 395.831C5375.04 395.831 5394.76 405.618 5408.02 425.193C5421.37 444.677 5428.05 466.996 5428.05 492.15C5428.05 519.317 5421.19 542.231 5407.47 560.891C5393.75 579.551 5373.72 588.881 5347.37 588.881ZM5348.61 431.642C5325.56 431.642 5314.03 451.857 5314.03 492.288C5314.03 532.809 5325.56 553.07 5348.61 553.07C5370.93 553.07 5382.09 532.855 5382.09 492.425C5382.09 451.903 5370.93 431.642 5348.61 431.642ZM5501.18 516.436V586H5456.59V398.712H5530.41C5546.87 398.712 5559.45 400.496 5568.14 404.063C5576.92 407.539 5584.74 413.805 5591.6 422.861C5598.46 431.917 5601.89 443.03 5601.89 456.202C5601.89 465.441 5600.06 474.451 5596.4 483.232C5592.75 492.013 5587.58 498.919 5580.9 503.95C5574.22 508.981 5567.73 512.32 5561.42 513.966C5555.2 515.613 5545.41 516.436 5532.05 516.436H5501.18ZM5499.67 482.409H5528.21C5539.1 482.409 5546.74 479.893 5551.13 474.862C5555.52 469.831 5557.71 464.069 5557.71 457.574C5557.71 449.982 5555.24 443.945 5550.3 439.463C5545.46 434.981 5538.05 432.74 5528.08 432.74H5499.67V482.409ZM5760.09 434.386H5670.77V472.804H5741.02V508.066H5670.77V548.954H5760.09V586H5626.18V398.712H5760.09V434.386ZM5830.75 511.771V586H5786.57V398.712H5868.9C5884.08 398.712 5896.25 400.496 5905.4 404.063C5914.63 407.539 5922.27 413.988 5928.31 423.41C5934.35 432.831 5937.36 443.305 5937.36 454.83C5937.36 477.332 5926.52 493.477 5904.85 503.264L5939.42 586H5890.99L5862.17 511.771H5830.75ZM5830.75 432.054V479.802H5857.65C5866.43 479.802 5872.79 479.207 5876.72 478.018C5880.74 476.737 5884.31 473.993 5887.42 469.786C5890.53 465.486 5892.09 460.593 5892.09 455.104C5892.09 449.891 5890.53 445.226 5887.42 441.109C5884.31 436.993 5880.93 434.478 5877.27 433.563C5873.61 432.557 5866.75 432.054 5856.69 432.054H5830.75ZM6063.32 398.712L6121.91 586H6074.71L6063.32 547.445H6002.67L5990.88 586H5952.46L6012.42 398.712H6063.32ZM6013.24 512.869H6053.03L6033.13 447.146L6013.24 512.869ZM6246.63 398.712V435.758H6200.25V586H6155.8V435.758H6109.15V398.712H6246.63ZM6309.2 398.712V586H6265.43V398.712H6309.2ZM6486.06 398.712L6429.66 586H6382.46L6326.21 398.712H6372.86L6410.32 532.626L6449.15 398.712H6486.06ZM6586.35 398.712L6644.94 586H6597.74L6586.35 547.445H6525.71L6513.91 586H6475.49L6535.45 398.712H6586.35ZM6536.27 512.869H6576.06L6556.17 447.146L6536.27 512.869Z" fill="#092368"/>
<path d="M2902.6 794.855H3138.79C3235.08 794.855 3306.82 808.26 3354.02 835.07C3401.22 861.503 3443.52 903.605 3480.9 961.379C3518.28 1018.77 3536.97 1091.46 3536.97 1179.45C3536.97 1290.08 3504.31 1382.6 3438.98 1456.98C3373.66 1530.99 3283.6 1568 3168.81 1568H2902.6V794.855ZM3080.45 937.023V1422.43H3155.21C3221.3 1422.43 3270.38 1397.89 3302.48 1348.8C3334.58 1299.33 3350.62 1241.37 3350.62 1174.91C3350.62 1128.09 3341.37 1084.86 3322.87 1045.21C3304.75 1005.18 3282.09 977.238 3254.9 961.379C3227.71 945.142 3195.05 937.023 3156.91 937.023H3080.45ZM3835.47 794.855V1568H3654.79V794.855H3835.47ZM4586.52 794.855V1568H4431.89L4128.87 1045.77C4129.24 1058.99 4129.62 1067.67 4130 1071.83C4131.51 1085.04 4132.27 1096.18 4132.27 1105.25V1568H3991.23V794.855H4186.64L4450.02 1250.81C4447.75 1228.16 4446.62 1210.98 4446.62 1199.27V794.855H4586.52ZM5121.21 794.855L5363.07 1568H5168.22L5121.21 1408.84H4870.86L4822.15 1568H4663.55L4911.07 794.855H5121.21ZM4914.47 1266.11H5078.73L4996.6 994.797L4914.47 1266.11ZM5788.44 1568L5598.12 937.59V1568H5446.33V794.855H5728.4L5863.77 1257.61L6006.5 794.855H6289.14V1568H6106.76V937.59L5912.48 1568H5788.44ZM6625.59 794.855V1568H6444.9V794.855H6625.59ZM7338.69 927.961L6947.87 1420.17H7351.15V1568H6726.97V1436.59L7116.66 940.988H6753.03V794.855H7338.69V927.961ZM7832.03 794.855L8073.89 1568H7879.04L7832.03 1408.84H7581.68L7532.97 1568H7374.38L7621.89 794.855H7832.03ZM7625.29 1266.11H7789.55L7707.42 994.797L7625.29 1266.11ZM8340.1 1261.57V1568H8157.71V794.855H8497.56C8560.24 794.855 8610.46 802.219 8648.22 816.945C8686.36 831.294 8717.89 857.915 8742.81 896.809C8767.73 935.702 8780.2 978.938 8780.2 1026.52C8780.2 1119.41 8735.45 1186.05 8645.96 1226.46L8788.69 1568H8588.75L8469.8 1261.57H8340.1ZM8340.1 932.492V1129.6H8451.11C8487.36 1129.6 8513.61 1127.15 8529.84 1122.24C8546.46 1116.95 8561.18 1105.62 8574.02 1088.25C8586.86 1070.51 8593.28 1050.3 8593.28 1027.65C8593.28 1006.12 8586.86 986.867 8574.02 969.875C8561.18 952.883 8547.21 942.499 8532.11 938.723C8517.01 934.569 8488.68 932.492 8447.15 932.492H8340.1Z" fill="#092368"/>
<path d="M3629.18 1851.87L3591.86 1864.36C3586.83 1849.54 3576.18 1842.13 3559.89 1842.13C3542.51 1842.13 3533.82 1847.76 3533.82 1859.01C3533.82 1863.49 3535.43 1867.29 3538.63 1870.4C3541.92 1873.51 3549.28 1876.21 3560.72 1878.49C3579.83 1882.33 3593.83 1886.22 3602.7 1890.16C3611.58 1894.09 3619.03 1900.45 3625.07 1909.23C3631.2 1917.92 3634.26 1927.66 3634.26 1938.45C3634.26 1955.37 3627.72 1970.01 3614.64 1982.36C3601.65 1994.71 3582.35 2000.88 3556.74 2000.88C3537.53 2000.88 3521.16 1996.54 3507.62 1987.85C3494.17 1979.07 3485.3 1966.08 3481 1948.88L3521.61 1939.69C3526.19 1957.16 3538.9 1965.89 3559.76 1965.89C3569.82 1965.89 3577.32 1963.97 3582.26 1960.13C3587.2 1956.2 3589.67 1951.53 3589.67 1946.14C3589.67 1940.65 3587.43 1936.39 3582.94 1933.38C3578.46 1930.36 3569.82 1927.52 3557.01 1924.87C3533.14 1919.93 3516.12 1913.21 3505.97 1904.7C3495.82 1896.1 3490.74 1883.57 3490.74 1867.1C3490.74 1850.46 3496.78 1836.42 3508.85 1824.98C3521.02 1813.55 3537.48 1807.83 3558.25 1807.83C3595.02 1807.83 3618.66 1822.51 3629.18 1851.87ZM4084.71 2000.88C4059.46 2000.88 4039.94 1991.41 4026.12 1972.48C4012.31 1953.54 4005.41 1930.63 4005.41 1903.74C4005.41 1876.39 4012.4 1853.57 4026.4 1835.27C4040.39 1816.98 4060.33 1807.83 4086.22 1807.83C4112.38 1807.83 4132.09 1817.62 4145.36 1837.19C4158.71 1856.68 4165.39 1879 4165.39 1904.15C4165.39 1931.32 4158.53 1954.23 4144.81 1972.89C4131.09 1991.55 4111.05 2000.88 4084.71 2000.88ZM4085.95 1843.64C4062.9 1843.64 4051.37 1863.86 4051.37 1904.29C4051.37 1944.81 4062.9 1965.07 4085.95 1965.07C4108.26 1965.07 4119.42 1944.86 4119.42 1904.42C4119.42 1863.9 4108.26 1843.64 4085.95 1843.64ZM4589.77 1960.95H4664.27V1998H4545.31V1810.71H4589.77V1960.95ZM5185.8 1810.71V1927.34C5185.8 1946.18 5183.65 1960.22 5179.35 1969.46C5175.05 1978.61 5167.09 1986.15 5155.47 1992.1C5143.95 1997.95 5129.18 2000.88 5111.16 2000.88C5093.14 2000.88 5078.78 1998.23 5068.07 1992.92C5057.46 1987.62 5049.51 1980.07 5044.2 1970.28C5038.89 1960.5 5036.24 1946.18 5036.24 1927.34V1810.71H5083.85V1927.34C5083.85 1937.4 5084.68 1944.81 5086.32 1949.57C5088.06 1954.32 5091.44 1958.12 5096.48 1960.95C5101.6 1963.7 5107.86 1965.07 5115.27 1965.07C5123.51 1965.07 5130.18 1963.7 5135.31 1960.95C5140.52 1958.21 5143.95 1954.6 5145.6 1950.11C5147.33 1945.54 5148.2 1937.95 5148.2 1927.34V1810.71H5185.8ZM5722.96 1880.41L5677 1883.29C5676.36 1856.86 5666.07 1843.64 5646.13 1843.64C5623.26 1843.64 5611.83 1863.99 5611.83 1904.7C5611.83 1928.21 5614.94 1944.17 5621.16 1952.58C5627.38 1960.91 5636.07 1965.07 5647.22 1965.07C5665.34 1965.07 5676.4 1953.27 5680.43 1929.67L5722.96 1932.28C5720.22 1954.69 5711.85 1971.75 5697.85 1983.46C5683.95 1995.07 5666.89 2000.88 5646.68 2000.88C5621.89 2000.88 5601.72 1992.33 5586.17 1975.22C5570.71 1958.12 5562.98 1934.47 5562.98 1904.29C5562.98 1876.02 5570.48 1852.88 5585.48 1834.86C5600.48 1816.84 5620.97 1807.83 5646.95 1807.83C5691.95 1807.83 5717.29 1832.03 5722.96 1880.41ZM6143.37 1810.71V1998H6099.6V1810.71H6143.37ZM6602.73 2000.88C6577.49 2000.88 6557.96 1991.41 6544.15 1972.48C6530.33 1953.54 6523.43 1930.63 6523.43 1903.74C6523.43 1876.39 6530.43 1853.57 6544.42 1835.27C6558.42 1816.98 6578.36 1807.83 6604.24 1807.83C6630.4 1807.83 6650.12 1817.62 6663.38 1837.19C6676.73 1856.68 6683.41 1879 6683.41 1904.15C6683.41 1931.32 6676.55 1954.23 6662.83 1972.89C6649.11 1991.55 6629.08 2000.88 6602.73 2000.88ZM6603.97 1843.64C6580.92 1843.64 6569.39 1863.86 6569.39 1904.29C6569.39 1944.81 6580.92 1965.07 6603.97 1965.07C6626.29 1965.07 6637.45 1944.86 6637.45 1904.42C6637.45 1863.9 6626.29 1843.64 6603.97 1843.64ZM7207.54 1810.71V1998H7170.09L7096.68 1871.5C7096.77 1874.7 7096.86 1876.8 7096.95 1877.81C7097.32 1881.01 7097.5 1883.71 7097.5 1885.9V1998H7063.34V1810.71H7110.67L7174.48 1921.16C7173.93 1915.68 7173.65 1911.51 7173.65 1908.68V1810.71H7207.54ZM7730.03 1846.39H7640.71V1884.8H7710.96V1920.07H7640.71V1960.95H7730.03V1998H7596.11V1810.71H7730.03V1846.39ZM8237.14 1851.87L8199.82 1864.36C8194.79 1849.54 8184.14 1842.13 8167.85 1842.13C8150.48 1842.13 8141.79 1847.76 8141.79 1859.01C8141.79 1863.49 8143.39 1867.29 8146.59 1870.4C8149.88 1873.51 8157.24 1876.21 8168.68 1878.49C8187.8 1882.33 8201.79 1886.22 8210.66 1890.16C8219.54 1894.09 8226.99 1900.45 8233.03 1909.23C8239.16 1917.92 8242.22 1927.66 8242.22 1938.45C8242.22 1955.37 8235.68 1970.01 8222.6 1982.36C8209.61 1994.71 8190.31 2000.88 8164.7 2000.88C8145.49 2000.88 8129.12 1996.54 8115.58 1987.85C8102.13 1979.07 8093.26 1966.08 8088.96 1948.88L8129.57 1939.69C8134.15 1957.16 8146.86 1965.89 8167.72 1965.89C8177.78 1965.89 8185.28 1963.97 8190.22 1960.13C8195.16 1956.2 8197.63 1951.53 8197.63 1946.14C8197.63 1940.65 8195.39 1936.39 8190.91 1933.38C8186.42 1930.36 8177.78 1927.52 8164.97 1924.87C8141.1 1919.93 8124.09 1913.21 8113.93 1904.7C8103.78 1896.1 8098.7 1883.57 8098.7 1867.1C8098.7 1850.46 8104.74 1836.42 8116.81 1824.98C8128.98 1813.55 8145.44 1807.83 8166.21 1807.83C8202.98 1807.83 8226.63 1822.51 8237.14 1851.87Z" fill="#092368"/>
<path d="M2781.5 2087H8882.5" stroke="#051D5C" stroke-width="40"/>
</svg>
