<svg width="6101" height="1713" viewBox="0 0 6101 1713" fill="none" xmlns="http://www.w3.org/2000/svg">
<mask id="path-1-outside-1_20_42" maskUnits="userSpaceOnUse" x="2129.38" y="0" width="1736" height="196" fill="black">
<rect fill="white" x="2129.38" width="1736" height="196"/>
<path d="M2290.36 73.5825L2244.4 76.4639C2243.76 50.0286 2233.47 36.811 2213.53 36.811C2190.66 36.811 2179.22 57.1634 2179.22 97.8682C2179.22 121.376 2182.33 137.338 2188.55 145.753C2194.77 154.077 2203.46 158.239 2214.62 158.239C2232.74 158.239 2243.8 146.439 2247.83 122.84L2290.36 125.447C2287.62 147.857 2279.25 164.917 2265.25 176.625C2251.35 188.242 2234.29 194.05 2214.08 194.05C2189.29 194.05 2169.12 185.498 2153.57 168.393C2138.11 151.287 2130.38 127.642 2130.38 97.4565C2130.38 69.1919 2137.88 46.0496 2152.88 28.0298C2167.88 10.0099 2188.37 1 2214.35 1C2259.35 1 2284.69 25.1942 2290.36 73.5825Z"/>
<path d="M2386.13 194.05C2360.89 194.05 2341.36 184.583 2327.55 165.648C2313.73 146.714 2306.83 123.8 2306.83 96.9077C2306.83 69.5578 2313.82 46.7357 2327.82 28.4414C2341.81 10.1471 2361.76 1 2387.64 1C2413.8 1 2433.51 10.7874 2446.78 30.3623C2460.13 49.8457 2466.81 72.1647 2466.81 97.3193C2466.81 124.486 2459.95 147.4 2446.23 166.06C2432.51 184.72 2412.48 194.05 2386.13 194.05ZM2387.37 36.811C2364.32 36.811 2352.79 57.0262 2352.79 97.4565C2352.79 137.978 2364.32 158.239 2387.37 158.239C2409.69 158.239 2420.85 138.024 2420.85 97.5938C2420.85 57.0719 2409.69 36.811 2387.37 36.811Z"/>
<path d="M2565.87 194.05C2540.63 194.05 2521.1 184.583 2507.29 165.648C2493.47 146.714 2486.57 123.8 2486.57 96.9077C2486.57 69.5578 2493.57 46.7357 2507.56 28.4414C2521.56 10.1471 2541.5 1 2567.38 1C2593.54 1 2613.26 10.7874 2626.52 30.3623C2639.87 49.8457 2646.55 72.1647 2646.55 97.3193C2646.55 124.486 2639.69 147.4 2625.97 166.06C2612.25 184.72 2592.22 194.05 2565.87 194.05ZM2567.11 36.811C2544.06 36.811 2532.53 57.0262 2532.53 97.4565C2532.53 137.978 2544.06 158.239 2567.11 158.239C2589.43 158.239 2600.59 138.024 2600.59 97.5938C2600.59 57.0719 2589.43 36.811 2567.11 36.811Z"/>
<path d="M2719.68 121.605V191.169H2675.09V3.88135H2748.91C2765.37 3.88135 2777.95 5.66504 2786.64 9.23242C2795.42 12.7083 2803.24 18.9741 2810.1 28.0298C2816.96 37.0854 2820.39 48.1992 2820.39 61.3711C2820.39 70.6097 2818.56 79.6196 2814.9 88.4009C2811.25 97.1821 2806.08 104.088 2799.4 109.119C2792.72 114.15 2786.23 117.489 2779.92 119.135C2773.7 120.782 2763.91 121.605 2750.55 121.605H2719.68ZM2718.17 87.5776H2746.71C2757.6 87.5776 2765.24 85.0622 2769.63 80.0312C2774.02 75.0003 2776.21 69.2376 2776.21 62.7432C2776.21 55.151 2773.74 49.1139 2768.8 44.6318C2763.96 40.1497 2756.55 37.9087 2746.58 37.9087H2718.17V87.5776Z"/>
<path d="M2978.59 39.5552H2889.27V77.9731H2959.52V113.235H2889.27V154.123H2978.59V191.169H2844.68V3.88135H2978.59V39.5552Z"/>
<path d="M3049.25 116.94V191.169H3005.07V3.88135H3087.4C3102.58 3.88135 3114.75 5.66504 3123.9 9.23242C3133.13 12.7083 3140.77 19.1571 3146.81 28.5786C3152.85 38.0002 3155.86 48.4736 3155.86 59.999C3155.86 82.501 3145.02 98.6457 3123.35 108.433L3157.92 191.169H3109.49L3080.67 116.94H3049.25ZM3049.25 37.2227V84.9707H3076.15C3084.93 84.9707 3091.29 84.3761 3095.22 83.187C3099.24 81.9064 3102.81 79.1623 3105.92 74.9546C3109.03 70.6554 3110.59 65.7617 3110.59 60.2734C3110.59 55.0596 3109.03 50.3945 3105.92 46.2783C3102.81 42.1621 3099.43 39.6466 3095.77 38.7319C3092.11 37.7257 3085.25 37.2227 3075.19 37.2227H3049.25Z"/>
<path d="M3281.82 3.88135L3340.41 191.169H3293.21L3281.82 152.614H3221.17L3209.38 191.169H3170.96L3230.92 3.88135H3281.82ZM3231.74 118.038H3271.53L3251.63 52.3154L3231.74 118.038Z"/>
<path d="M3465.13 3.88135V40.9272H3418.75V191.169H3374.3V40.9272H3327.65V3.88135H3465.13Z"/>
<path d="M3527.7 3.88135V191.169H3483.93V3.88135H3527.7Z"/>
<path d="M3704.56 3.88135L3648.16 191.169H3600.96L3544.71 3.88135H3591.36L3628.82 137.795L3667.65 3.88135H3704.56Z"/>
<path d="M3804.85 3.88135L3863.44 191.169H3816.24L3804.85 152.614H3744.21L3732.41 191.169H3693.99L3753.95 3.88135H3804.85ZM3754.77 118.038H3794.56L3774.67 52.3154L3754.77 118.038Z"/>
</mask>
<path d="M2290.36 73.5825L2244.4 76.4639C2243.76 50.0286 2233.47 36.811 2213.53 36.811C2190.66 36.811 2179.22 57.1634 2179.22 97.8682C2179.22 121.376 2182.33 137.338 2188.55 145.753C2194.77 154.077 2203.46 158.239 2214.62 158.239C2232.74 158.239 2243.8 146.439 2247.83 122.84L2290.36 125.447C2287.62 147.857 2279.25 164.917 2265.25 176.625C2251.35 188.242 2234.29 194.05 2214.08 194.05C2189.29 194.05 2169.12 185.498 2153.57 168.393C2138.11 151.287 2130.38 127.642 2130.38 97.4565C2130.38 69.1919 2137.88 46.0496 2152.88 28.0298C2167.88 10.0099 2188.37 1 2214.35 1C2259.35 1 2284.69 25.1942 2290.36 73.5825Z" fill="white"/>
<path d="M2386.13 194.05C2360.89 194.05 2341.36 184.583 2327.55 165.648C2313.73 146.714 2306.83 123.8 2306.83 96.9077C2306.83 69.5578 2313.82 46.7357 2327.82 28.4414C2341.81 10.1471 2361.76 1 2387.64 1C2413.8 1 2433.51 10.7874 2446.78 30.3623C2460.13 49.8457 2466.81 72.1647 2466.81 97.3193C2466.81 124.486 2459.95 147.4 2446.23 166.06C2432.51 184.72 2412.48 194.05 2386.13 194.05ZM2387.37 36.811C2364.32 36.811 2352.79 57.0262 2352.79 97.4565C2352.79 137.978 2364.32 158.239 2387.37 158.239C2409.69 158.239 2420.85 138.024 2420.85 97.5938C2420.85 57.0719 2409.69 36.811 2387.37 36.811Z" fill="white"/>
<path d="M2565.87 194.05C2540.63 194.05 2521.1 184.583 2507.29 165.648C2493.47 146.714 2486.57 123.8 2486.57 96.9077C2486.57 69.5578 2493.57 46.7357 2507.56 28.4414C2521.56 10.1471 2541.5 1 2567.38 1C2593.54 1 2613.26 10.7874 2626.52 30.3623C2639.87 49.8457 2646.55 72.1647 2646.55 97.3193C2646.55 124.486 2639.69 147.4 2625.97 166.06C2612.25 184.72 2592.22 194.05 2565.87 194.05ZM2567.11 36.811C2544.06 36.811 2532.53 57.0262 2532.53 97.4565C2532.53 137.978 2544.06 158.239 2567.11 158.239C2589.43 158.239 2600.59 138.024 2600.59 97.5938C2600.59 57.0719 2589.43 36.811 2567.11 36.811Z" fill="white"/>
<path d="M2719.68 121.605V191.169H2675.09V3.88135H2748.91C2765.37 3.88135 2777.95 5.66504 2786.64 9.23242C2795.42 12.7083 2803.24 18.9741 2810.1 28.0298C2816.96 37.0854 2820.39 48.1992 2820.39 61.3711C2820.39 70.6097 2818.56 79.6196 2814.9 88.4009C2811.25 97.1821 2806.08 104.088 2799.4 109.119C2792.72 114.15 2786.23 117.489 2779.92 119.135C2773.7 120.782 2763.91 121.605 2750.55 121.605H2719.68ZM2718.17 87.5776H2746.71C2757.6 87.5776 2765.24 85.0622 2769.63 80.0312C2774.02 75.0003 2776.21 69.2376 2776.21 62.7432C2776.21 55.151 2773.74 49.1139 2768.8 44.6318C2763.96 40.1497 2756.55 37.9087 2746.58 37.9087H2718.17V87.5776Z" fill="white"/>
<path d="M2978.59 39.5552H2889.27V77.9731H2959.52V113.235H2889.27V154.123H2978.59V191.169H2844.68V3.88135H2978.59V39.5552Z" fill="white"/>
<path d="M3049.25 116.94V191.169H3005.07V3.88135H3087.4C3102.58 3.88135 3114.75 5.66504 3123.9 9.23242C3133.13 12.7083 3140.77 19.1571 3146.81 28.5786C3152.85 38.0002 3155.86 48.4736 3155.86 59.999C3155.86 82.501 3145.02 98.6457 3123.35 108.433L3157.92 191.169H3109.49L3080.67 116.94H3049.25ZM3049.25 37.2227V84.9707H3076.15C3084.93 84.9707 3091.29 84.3761 3095.22 83.187C3099.24 81.9064 3102.81 79.1623 3105.92 74.9546C3109.03 70.6554 3110.59 65.7617 3110.59 60.2734C3110.59 55.0596 3109.03 50.3945 3105.92 46.2783C3102.81 42.1621 3099.43 39.6466 3095.77 38.7319C3092.11 37.7257 3085.25 37.2227 3075.19 37.2227H3049.25Z" fill="white"/>
<path d="M3281.82 3.88135L3340.41 191.169H3293.21L3281.82 152.614H3221.17L3209.38 191.169H3170.96L3230.92 3.88135H3281.82ZM3231.74 118.038H3271.53L3251.63 52.3154L3231.74 118.038Z" fill="white"/>
<path d="M3465.13 3.88135V40.9272H3418.75V191.169H3374.3V40.9272H3327.65V3.88135H3465.13Z" fill="white"/>
<path d="M3527.7 3.88135V191.169H3483.93V3.88135H3527.7Z" fill="white"/>
<path d="M3704.56 3.88135L3648.16 191.169H3600.96L3544.71 3.88135H3591.36L3628.82 137.795L3667.65 3.88135H3704.56Z" fill="white"/>
<path d="M3804.85 3.88135L3863.44 191.169H3816.24L3804.85 152.614H3744.21L3732.41 191.169H3693.99L3753.95 3.88135H3804.85ZM3754.77 118.038H3794.56L3774.67 52.3154L3754.77 118.038Z" fill="white"/>
<path d="M2290.36 73.5825L2244.4 76.4639C2243.76 50.0286 2233.47 36.811 2213.53 36.811C2190.66 36.811 2179.22 57.1634 2179.22 97.8682C2179.22 121.376 2182.33 137.338 2188.55 145.753C2194.77 154.077 2203.46 158.239 2214.62 158.239C2232.74 158.239 2243.8 146.439 2247.83 122.84L2290.36 125.447C2287.62 147.857 2279.25 164.917 2265.25 176.625C2251.35 188.242 2234.29 194.05 2214.08 194.05C2189.29 194.05 2169.12 185.498 2153.57 168.393C2138.11 151.287 2130.38 127.642 2130.38 97.4565C2130.38 69.1919 2137.88 46.0496 2152.88 28.0298C2167.88 10.0099 2188.37 1 2214.35 1C2259.35 1 2284.69 25.1942 2290.36 73.5825Z" stroke="white" stroke-width="2" mask="url(#path-1-outside-1_20_42)"/>
<path d="M2386.13 194.05C2360.89 194.05 2341.36 184.583 2327.55 165.648C2313.73 146.714 2306.83 123.8 2306.83 96.9077C2306.83 69.5578 2313.82 46.7357 2327.82 28.4414C2341.81 10.1471 2361.76 1 2387.64 1C2413.8 1 2433.51 10.7874 2446.78 30.3623C2460.13 49.8457 2466.81 72.1647 2466.81 97.3193C2466.81 124.486 2459.95 147.4 2446.23 166.06C2432.51 184.72 2412.48 194.05 2386.13 194.05ZM2387.37 36.811C2364.32 36.811 2352.79 57.0262 2352.79 97.4565C2352.79 137.978 2364.32 158.239 2387.37 158.239C2409.69 158.239 2420.85 138.024 2420.85 97.5938C2420.85 57.0719 2409.69 36.811 2387.37 36.811Z" stroke="white" stroke-width="2" mask="url(#path-1-outside-1_20_42)"/>
<path d="M2565.87 194.05C2540.63 194.05 2521.1 184.583 2507.29 165.648C2493.47 146.714 2486.57 123.8 2486.57 96.9077C2486.57 69.5578 2493.57 46.7357 2507.56 28.4414C2521.56 10.1471 2541.5 1 2567.38 1C2593.54 1 2613.26 10.7874 2626.52 30.3623C2639.87 49.8457 2646.55 72.1647 2646.55 97.3193C2646.55 124.486 2639.69 147.4 2625.97 166.06C2612.25 184.72 2592.22 194.05 2565.87 194.05ZM2567.11 36.811C2544.06 36.811 2532.53 57.0262 2532.53 97.4565C2532.53 137.978 2544.06 158.239 2567.11 158.239C2589.43 158.239 2600.59 138.024 2600.59 97.5938C2600.59 57.0719 2589.43 36.811 2567.11 36.811Z" stroke="white" stroke-width="2" mask="url(#path-1-outside-1_20_42)"/>
<path d="M2719.68 121.605V191.169H2675.09V3.88135H2748.91C2765.37 3.88135 2777.95 5.66504 2786.64 9.23242C2795.42 12.7083 2803.24 18.9741 2810.1 28.0298C2816.96 37.0854 2820.39 48.1992 2820.39 61.3711C2820.39 70.6097 2818.56 79.6196 2814.9 88.4009C2811.25 97.1821 2806.08 104.088 2799.4 109.119C2792.72 114.15 2786.23 117.489 2779.92 119.135C2773.7 120.782 2763.91 121.605 2750.55 121.605H2719.68ZM2718.17 87.5776H2746.71C2757.6 87.5776 2765.24 85.0622 2769.63 80.0312C2774.02 75.0003 2776.21 69.2376 2776.21 62.7432C2776.21 55.151 2773.74 49.1139 2768.8 44.6318C2763.96 40.1497 2756.55 37.9087 2746.58 37.9087H2718.17V87.5776Z" stroke="white" stroke-width="2" mask="url(#path-1-outside-1_20_42)"/>
<path d="M2978.59 39.5552H2889.27V77.9731H2959.52V113.235H2889.27V154.123H2978.59V191.169H2844.68V3.88135H2978.59V39.5552Z" stroke="white" stroke-width="2" mask="url(#path-1-outside-1_20_42)"/>
<path d="M3049.25 116.94V191.169H3005.07V3.88135H3087.4C3102.58 3.88135 3114.75 5.66504 3123.9 9.23242C3133.13 12.7083 3140.77 19.1571 3146.81 28.5786C3152.85 38.0002 3155.86 48.4736 3155.86 59.999C3155.86 82.501 3145.02 98.6457 3123.35 108.433L3157.92 191.169H3109.49L3080.67 116.94H3049.25ZM3049.25 37.2227V84.9707H3076.15C3084.93 84.9707 3091.29 84.3761 3095.22 83.187C3099.24 81.9064 3102.81 79.1623 3105.92 74.9546C3109.03 70.6554 3110.59 65.7617 3110.59 60.2734C3110.59 55.0596 3109.03 50.3945 3105.92 46.2783C3102.81 42.1621 3099.43 39.6466 3095.77 38.7319C3092.11 37.7257 3085.25 37.2227 3075.19 37.2227H3049.25Z" stroke="white" stroke-width="2" mask="url(#path-1-outside-1_20_42)"/>
<path d="M3281.82 3.88135L3340.41 191.169H3293.21L3281.82 152.614H3221.17L3209.38 191.169H3170.96L3230.92 3.88135H3281.82ZM3231.74 118.038H3271.53L3251.63 52.3154L3231.74 118.038Z" stroke="white" stroke-width="2" mask="url(#path-1-outside-1_20_42)"/>
<path d="M3465.13 3.88135V40.9272H3418.75V191.169H3374.3V40.9272H3327.65V3.88135H3465.13Z" stroke="white" stroke-width="2" mask="url(#path-1-outside-1_20_42)"/>
<path d="M3527.7 3.88135V191.169H3483.93V3.88135H3527.7Z" stroke="white" stroke-width="2" mask="url(#path-1-outside-1_20_42)"/>
<path d="M3704.56 3.88135L3648.16 191.169H3600.96L3544.71 3.88135H3591.36L3628.82 137.795L3667.65 3.88135H3704.56Z" stroke="white" stroke-width="2" mask="url(#path-1-outside-1_20_42)"/>
<path d="M3804.85 3.88135L3863.44 191.169H3816.24L3804.85 152.614H3744.21L3732.41 191.169H3693.99L3753.95 3.88135H3804.85ZM3754.77 118.038H3794.56L3774.67 52.3154L3754.77 118.038Z" stroke="white" stroke-width="2" mask="url(#path-1-outside-1_20_42)"/>
<mask id="path-2-outside-2_20_42" maskUnits="userSpaceOnUse" x="120.098" y="399.024" width="5889" height="776" fill="black">
<rect fill="white" x="120.098" y="399.024" width="5889" height="776"/>
<path d="M121.098 400.024H357.289C453.578 400.024 525.323 413.429 572.523 440.239C619.724 466.672 662.016 508.774 699.398 566.548C736.781 623.944 755.473 696.632 755.473 784.614C755.473 895.252 722.81 987.765 657.484 1062.15C592.159 1136.16 502.1 1173.17 387.309 1173.17H121.098V400.024ZM298.949 542.192V1027.6H373.715C439.796 1027.6 488.884 1003.06 520.98 953.97C553.077 904.504 569.125 846.541 569.125 780.083C569.125 733.26 559.874 690.024 541.371 650.376C523.246 610.35 500.59 582.407 473.402 566.548C446.215 550.311 413.552 542.192 375.414 542.192H298.949Z"/>
<path d="M1053.97 400.024V1173.17H873.285V400.024H1053.97Z"/>
<path d="M1805.02 400.024V1173.17H1650.39L1347.37 650.942C1347.74 664.159 1348.12 672.843 1348.5 676.997C1350.01 690.213 1350.77 701.353 1350.77 710.415V1173.17H1209.73V400.024H1405.14L1668.52 855.981C1666.25 833.325 1665.12 816.144 1665.12 804.438V400.024H1805.02Z"/>
<path d="M2339.71 400.024L2581.57 1173.17H2386.72L2339.71 1014.01H2089.36L2040.65 1173.17H1882.05L2129.57 400.024H2339.71ZM2132.97 871.274H2297.23L2215.1 599.966L2132.97 871.274Z"/>
<path d="M3006.94 1173.17L2816.62 542.759V1173.17H2664.83V400.024H2946.9L3082.27 862.778L3225 400.024H3507.64V1173.17H3325.26V542.759L3130.98 1173.17H3006.94Z"/>
<path d="M3844.09 400.024V1173.17H3663.4V400.024H3844.09Z"/>
<path d="M4557.19 533.13L4166.37 1025.34H4569.65V1173.17H3945.47V1041.76L4335.16 546.157H3971.53V400.024H4557.19V533.13Z"/>
<path d="M5050.53 400.024L5292.39 1173.17H5097.54L5050.53 1014.01H4800.18L4751.47 1173.17H4592.88L4840.39 400.024H5050.53ZM4843.79 871.274H5008.05L4925.92 599.966L4843.79 871.274Z"/>
<path d="M5558.6 866.743V1173.17H5376.21V400.024H5716.06C5778.74 400.024 5828.96 407.388 5866.72 422.114C5904.86 436.463 5936.39 463.084 5961.31 501.978C5986.23 540.871 5998.7 584.106 5998.7 631.685C5998.7 724.575 5953.95 791.222 5864.46 831.626L6007.19 1173.17H5807.25L5688.3 866.743H5558.6ZM5558.6 537.661V734.771H5669.61C5705.86 734.771 5732.11 732.316 5748.34 727.407C5764.96 722.121 5779.68 710.793 5792.52 693.423C5805.36 675.675 5811.78 655.474 5811.78 632.817C5811.78 611.294 5805.36 592.036 5792.52 575.044C5779.68 558.052 5765.71 547.668 5750.61 543.892C5735.51 539.738 5707.18 537.661 5665.65 537.661H5558.6Z"/>
</mask>
<path d="M121.098 400.024H357.289C453.578 400.024 525.323 413.429 572.523 440.239C619.724 466.672 662.016 508.774 699.398 566.548C736.781 623.944 755.473 696.632 755.473 784.614C755.473 895.252 722.81 987.765 657.484 1062.15C592.159 1136.16 502.1 1173.17 387.309 1173.17H121.098V400.024ZM298.949 542.192V1027.6H373.715C439.796 1027.6 488.884 1003.06 520.98 953.97C553.077 904.504 569.125 846.541 569.125 780.083C569.125 733.26 559.874 690.024 541.371 650.376C523.246 610.35 500.59 582.407 473.402 566.548C446.215 550.311 413.552 542.192 375.414 542.192H298.949Z" fill="white"/>
<path d="M1053.97 400.024V1173.17H873.285V400.024H1053.97Z" fill="white"/>
<path d="M1805.02 400.024V1173.17H1650.39L1347.37 650.942C1347.74 664.159 1348.12 672.843 1348.5 676.997C1350.01 690.213 1350.77 701.353 1350.77 710.415V1173.17H1209.73V400.024H1405.14L1668.52 855.981C1666.25 833.325 1665.12 816.144 1665.12 804.438V400.024H1805.02Z" fill="white"/>
<path d="M2339.71 400.024L2581.57 1173.17H2386.72L2339.71 1014.01H2089.36L2040.65 1173.17H1882.05L2129.57 400.024H2339.71ZM2132.97 871.274H2297.23L2215.1 599.966L2132.97 871.274Z" fill="white"/>
<path d="M3006.94 1173.17L2816.62 542.759V1173.17H2664.83V400.024H2946.9L3082.27 862.778L3225 400.024H3507.64V1173.17H3325.26V542.759L3130.98 1173.17H3006.94Z" fill="white"/>
<path d="M3844.09 400.024V1173.17H3663.4V400.024H3844.09Z" fill="white"/>
<path d="M4557.19 533.13L4166.37 1025.34H4569.65V1173.17H3945.47V1041.76L4335.16 546.157H3971.53V400.024H4557.19V533.13Z" fill="white"/>
<path d="M5050.53 400.024L5292.39 1173.17H5097.54L5050.53 1014.01H4800.18L4751.47 1173.17H4592.88L4840.39 400.024H5050.53ZM4843.79 871.274H5008.05L4925.92 599.966L4843.79 871.274Z" fill="white"/>
<path d="M5558.6 866.743V1173.17H5376.21V400.024H5716.06C5778.74 400.024 5828.96 407.388 5866.72 422.114C5904.86 436.463 5936.39 463.084 5961.31 501.978C5986.23 540.871 5998.7 584.106 5998.7 631.685C5998.7 724.575 5953.95 791.222 5864.46 831.626L6007.19 1173.17H5807.25L5688.3 866.743H5558.6ZM5558.6 537.661V734.771H5669.61C5705.86 734.771 5732.11 732.316 5748.34 727.407C5764.96 722.121 5779.68 710.793 5792.52 693.423C5805.36 675.675 5811.78 655.474 5811.78 632.817C5811.78 611.294 5805.36 592.036 5792.52 575.044C5779.68 558.052 5765.71 547.668 5750.61 543.892C5735.51 539.738 5707.18 537.661 5665.65 537.661H5558.6Z" fill="white"/>
<path d="M121.098 400.024H357.289C453.578 400.024 525.323 413.429 572.523 440.239C619.724 466.672 662.016 508.774 699.398 566.548C736.781 623.944 755.473 696.632 755.473 784.614C755.473 895.252 722.81 987.765 657.484 1062.15C592.159 1136.16 502.1 1173.17 387.309 1173.17H121.098V400.024ZM298.949 542.192V1027.6H373.715C439.796 1027.6 488.884 1003.06 520.98 953.97C553.077 904.504 569.125 846.541 569.125 780.083C569.125 733.26 559.874 690.024 541.371 650.376C523.246 610.35 500.59 582.407 473.402 566.548C446.215 550.311 413.552 542.192 375.414 542.192H298.949Z" stroke="white" stroke-width="2" mask="url(#path-2-outside-2_20_42)"/>
<path d="M1053.97 400.024V1173.17H873.285V400.024H1053.97Z" stroke="white" stroke-width="2" mask="url(#path-2-outside-2_20_42)"/>
<path d="M1805.02 400.024V1173.17H1650.39L1347.37 650.942C1347.74 664.159 1348.12 672.843 1348.5 676.997C1350.01 690.213 1350.77 701.353 1350.77 710.415V1173.17H1209.73V400.024H1405.14L1668.52 855.981C1666.25 833.325 1665.12 816.144 1665.12 804.438V400.024H1805.02Z" stroke="white" stroke-width="2" mask="url(#path-2-outside-2_20_42)"/>
<path d="M2339.71 400.024L2581.57 1173.17H2386.72L2339.71 1014.01H2089.36L2040.65 1173.17H1882.05L2129.57 400.024H2339.71ZM2132.97 871.274H2297.23L2215.1 599.966L2132.97 871.274Z" stroke="white" stroke-width="2" mask="url(#path-2-outside-2_20_42)"/>
<path d="M3006.94 1173.17L2816.62 542.759V1173.17H2664.83V400.024H2946.9L3082.27 862.778L3225 400.024H3507.64V1173.17H3325.26V542.759L3130.98 1173.17H3006.94Z" stroke="white" stroke-width="2" mask="url(#path-2-outside-2_20_42)"/>
<path d="M3844.09 400.024V1173.17H3663.4V400.024H3844.09Z" stroke="white" stroke-width="2" mask="url(#path-2-outside-2_20_42)"/>
<path d="M4557.19 533.13L4166.37 1025.34H4569.65V1173.17H3945.47V1041.76L4335.16 546.157H3971.53V400.024H4557.19V533.13Z" stroke="white" stroke-width="2" mask="url(#path-2-outside-2_20_42)"/>
<path d="M5050.53 400.024L5292.39 1173.17H5097.54L5050.53 1014.01H4800.18L4751.47 1173.17H4592.88L4840.39 400.024H5050.53ZM4843.79 871.274H5008.05L4925.92 599.966L4843.79 871.274Z" stroke="white" stroke-width="2" mask="url(#path-2-outside-2_20_42)"/>
<path d="M5558.6 866.743V1173.17H5376.21V400.024H5716.06C5778.74 400.024 5828.96 407.388 5866.72 422.114C5904.86 436.463 5936.39 463.084 5961.31 501.978C5986.23 540.871 5998.7 584.106 5998.7 631.685C5998.7 724.575 5953.95 791.222 5864.46 831.626L6007.19 1173.17H5807.25L5688.3 866.743H5558.6ZM5558.6 537.661V734.771H5669.61C5705.86 734.771 5732.11 732.316 5748.34 727.407C5764.96 722.121 5779.68 710.793 5792.52 693.423C5805.36 675.675 5811.78 655.474 5811.78 632.817C5811.78 611.294 5805.36 592.036 5792.52 575.044C5779.68 558.052 5765.71 547.668 5750.61 543.892C5735.51 539.738 5707.18 537.661 5665.65 537.661H5558.6Z" stroke="white" stroke-width="2" mask="url(#path-2-outside-2_20_42)"/>
<mask id="path-3-outside-3_20_42" maskUnits="userSpaceOnUse" x="697.5" y="1412" width="4765" height="196" fill="black">
<rect fill="white" x="697.5" y="1412" width="4765" height="196"/>
<path d="M847.684 1457.04L810.363 1469.53C805.332 1454.71 794.676 1447.3 778.394 1447.3C761.014 1447.3 752.325 1452.93 752.325 1464.18C752.325 1468.66 753.925 1472.46 757.127 1475.57C760.42 1478.68 767.783 1481.37 779.217 1483.66C798.335 1487.5 812.33 1491.39 821.203 1495.32C830.075 1499.26 837.53 1505.61 843.567 1514.4C849.696 1523.09 852.76 1532.83 852.76 1543.62C852.76 1560.54 846.22 1575.18 833.14 1587.53C820.151 1599.88 800.85 1606.05 775.238 1606.05C756.029 1606.05 739.656 1601.71 726.118 1593.02C712.672 1584.23 703.799 1571.25 699.5 1554.05L740.113 1544.86C744.687 1562.33 757.401 1571.06 778.257 1571.06C788.319 1571.06 795.819 1569.14 800.759 1565.3C805.698 1561.37 808.168 1556.7 808.168 1551.3C808.168 1545.82 805.927 1541.56 801.445 1538.54C796.963 1535.53 788.319 1532.69 775.513 1530.04C751.639 1525.1 734.625 1518.38 724.472 1509.87C714.318 1501.27 709.242 1488.74 709.242 1472.27C709.242 1455.63 715.279 1441.58 727.353 1430.15C739.519 1418.72 755.984 1413 776.748 1413C813.519 1413 837.164 1427.68 847.684 1457.04Z"/>
<path d="M1303.21 1606.05C1277.96 1606.05 1258.44 1596.58 1244.62 1577.65C1230.81 1558.71 1223.91 1535.8 1223.91 1508.91C1223.91 1481.56 1230.9 1458.74 1244.9 1440.44C1258.89 1422.15 1278.83 1413 1304.72 1413C1330.88 1413 1350.59 1422.79 1363.86 1442.36C1377.21 1461.85 1383.89 1484.16 1383.89 1509.32C1383.89 1536.49 1377.03 1559.4 1363.31 1578.06C1349.59 1596.72 1329.55 1606.05 1303.21 1606.05ZM1304.45 1448.81C1281.4 1448.81 1269.87 1469.03 1269.87 1509.46C1269.87 1549.98 1281.4 1570.24 1304.45 1570.24C1326.76 1570.24 1337.92 1550.02 1337.92 1509.59C1337.92 1469.07 1326.76 1448.81 1304.45 1448.81Z"/>
<path d="M1808.27 1566.12H1882.77V1603.17H1763.81V1415.88H1808.27V1566.12Z"/>
<path d="M2404.3 1415.88V1532.51C2404.3 1551.35 2402.15 1565.39 2397.85 1574.63C2393.55 1583.78 2385.59 1591.32 2373.97 1597.27C2362.45 1603.12 2347.68 1606.05 2329.66 1606.05C2311.64 1606.05 2297.28 1603.4 2286.57 1598.09C2275.96 1592.79 2268.01 1585.24 2262.7 1575.45C2257.39 1565.67 2254.74 1551.35 2254.74 1532.51V1415.88H2302.35V1532.51C2302.35 1542.57 2303.18 1549.98 2304.82 1554.73C2306.56 1559.49 2309.94 1563.29 2314.98 1566.12C2320.1 1568.87 2326.36 1570.24 2333.77 1570.24C2342.01 1570.24 2348.68 1568.87 2353.81 1566.12C2359.02 1563.38 2362.45 1559.77 2364.1 1555.28C2365.83 1550.71 2366.7 1543.12 2366.7 1532.51V1415.88H2404.3Z"/>
<path d="M2941.46 1485.58L2895.5 1488.46C2894.86 1462.03 2884.57 1448.81 2864.63 1448.81C2841.76 1448.81 2830.33 1469.16 2830.33 1509.87C2830.33 1533.38 2833.44 1549.34 2839.66 1557.75C2845.88 1566.08 2854.57 1570.24 2865.72 1570.24C2883.84 1570.24 2894.9 1558.44 2898.93 1534.84L2941.46 1537.45C2938.72 1559.86 2930.35 1576.92 2916.35 1588.62C2902.45 1600.24 2885.39 1606.05 2865.18 1606.05C2840.39 1606.05 2820.22 1597.5 2804.67 1580.39C2789.21 1563.29 2781.48 1539.64 2781.48 1509.46C2781.48 1481.19 2788.98 1458.05 2803.98 1440.03C2818.98 1422.01 2839.47 1413 2865.45 1413C2910.45 1413 2935.79 1437.19 2941.46 1485.58Z"/>
<path d="M3361.87 1415.88V1603.17H3318.1V1415.88H3361.87Z"/>
<path d="M3821.23 1606.05C3795.99 1606.05 3776.46 1596.58 3762.65 1577.65C3748.83 1558.71 3741.93 1535.8 3741.93 1508.91C3741.93 1481.56 3748.93 1458.74 3762.92 1440.44C3776.92 1422.15 3796.86 1413 3822.74 1413C3848.9 1413 3868.62 1422.79 3881.88 1442.36C3895.23 1461.85 3901.91 1484.16 3901.91 1509.32C3901.91 1536.49 3895.05 1559.4 3881.33 1578.06C3867.61 1596.72 3847.58 1606.05 3821.23 1606.05ZM3822.47 1448.81C3799.42 1448.81 3787.89 1469.03 3787.89 1509.46C3787.89 1549.98 3799.42 1570.24 3822.47 1570.24C3844.79 1570.24 3855.95 1550.02 3855.95 1509.59C3855.95 1469.07 3844.79 1448.81 3822.47 1448.81Z"/>
<path d="M4426.04 1415.88V1603.17H4388.59L4315.18 1476.66C4315.27 1479.87 4315.36 1481.97 4315.45 1482.98C4315.82 1486.18 4316 1488.88 4316 1491.07V1603.17H4281.84V1415.88H4329.17L4392.98 1526.33C4392.43 1520.84 4392.15 1516.68 4392.15 1513.85V1415.88H4426.04Z"/>
<path d="M4948.53 1451.56H4859.21V1489.97H4929.46V1525.24H4859.21V1566.12H4948.53V1603.17H4814.61V1415.88H4948.53V1451.56Z"/>
<path d="M5455.64 1457.04L5418.32 1469.53C5413.29 1454.71 5402.64 1447.3 5386.35 1447.3C5368.98 1447.3 5360.29 1452.93 5360.29 1464.18C5360.29 1468.66 5361.89 1472.46 5365.09 1475.57C5368.38 1478.68 5375.74 1481.37 5387.18 1483.66C5406.3 1487.5 5420.29 1491.39 5429.16 1495.32C5438.04 1499.26 5445.49 1505.61 5451.53 1514.4C5457.66 1523.09 5460.72 1532.83 5460.72 1543.62C5460.72 1560.54 5454.18 1575.18 5441.1 1587.53C5428.11 1599.88 5408.81 1606.05 5383.2 1606.05C5363.99 1606.05 5347.62 1601.71 5334.08 1593.02C5320.63 1584.23 5311.76 1571.25 5307.46 1554.05L5348.07 1544.86C5352.65 1562.33 5365.36 1571.06 5386.22 1571.06C5396.28 1571.06 5403.78 1569.14 5408.72 1565.3C5413.66 1561.37 5416.13 1556.7 5416.13 1551.3C5416.13 1545.82 5413.89 1541.56 5409.41 1538.54C5404.92 1535.53 5396.28 1532.69 5383.47 1530.04C5359.6 1525.1 5342.59 1518.38 5332.43 1509.87C5322.28 1501.27 5317.2 1488.74 5317.2 1472.27C5317.2 1455.63 5323.24 1441.58 5335.31 1430.15C5347.48 1418.72 5363.94 1413 5384.71 1413C5421.48 1413 5445.13 1427.68 5455.64 1457.04Z"/>
</mask>
<path d="M847.684 1457.04L810.363 1469.53C805.332 1454.71 794.676 1447.3 778.394 1447.3C761.014 1447.3 752.325 1452.93 752.325 1464.18C752.325 1468.66 753.925 1472.46 757.127 1475.57C760.42 1478.68 767.783 1481.37 779.217 1483.66C798.335 1487.5 812.33 1491.39 821.203 1495.32C830.075 1499.26 837.53 1505.61 843.567 1514.4C849.696 1523.09 852.76 1532.83 852.76 1543.62C852.76 1560.54 846.22 1575.18 833.14 1587.53C820.151 1599.88 800.85 1606.05 775.238 1606.05C756.029 1606.05 739.656 1601.71 726.118 1593.02C712.672 1584.23 703.799 1571.25 699.5 1554.05L740.113 1544.86C744.687 1562.33 757.401 1571.06 778.257 1571.06C788.319 1571.06 795.819 1569.14 800.759 1565.3C805.698 1561.37 808.168 1556.7 808.168 1551.3C808.168 1545.82 805.927 1541.56 801.445 1538.54C796.963 1535.53 788.319 1532.69 775.513 1530.04C751.639 1525.1 734.625 1518.38 724.472 1509.87C714.318 1501.27 709.242 1488.74 709.242 1472.27C709.242 1455.63 715.279 1441.58 727.353 1430.15C739.519 1418.72 755.984 1413 776.748 1413C813.519 1413 837.164 1427.68 847.684 1457.04Z" fill="white"/>
<path d="M1303.21 1606.05C1277.96 1606.05 1258.44 1596.58 1244.62 1577.65C1230.81 1558.71 1223.91 1535.8 1223.91 1508.91C1223.91 1481.56 1230.9 1458.74 1244.9 1440.44C1258.89 1422.15 1278.83 1413 1304.72 1413C1330.88 1413 1350.59 1422.79 1363.86 1442.36C1377.21 1461.85 1383.89 1484.16 1383.89 1509.32C1383.89 1536.49 1377.03 1559.4 1363.31 1578.06C1349.59 1596.72 1329.55 1606.05 1303.21 1606.05ZM1304.45 1448.81C1281.4 1448.81 1269.87 1469.03 1269.87 1509.46C1269.87 1549.98 1281.4 1570.24 1304.45 1570.24C1326.76 1570.24 1337.92 1550.02 1337.92 1509.59C1337.92 1469.07 1326.76 1448.81 1304.45 1448.81Z" fill="white"/>
<path d="M1808.27 1566.12H1882.77V1603.17H1763.81V1415.88H1808.27V1566.12Z" fill="white"/>
<path d="M2404.3 1415.88V1532.51C2404.3 1551.35 2402.15 1565.39 2397.85 1574.63C2393.55 1583.78 2385.59 1591.32 2373.97 1597.27C2362.45 1603.12 2347.68 1606.05 2329.66 1606.05C2311.64 1606.05 2297.28 1603.4 2286.57 1598.09C2275.96 1592.79 2268.01 1585.24 2262.7 1575.45C2257.39 1565.67 2254.74 1551.35 2254.74 1532.51V1415.88H2302.35V1532.51C2302.35 1542.57 2303.18 1549.98 2304.82 1554.73C2306.56 1559.49 2309.94 1563.29 2314.98 1566.12C2320.1 1568.87 2326.36 1570.24 2333.77 1570.24C2342.01 1570.24 2348.68 1568.87 2353.81 1566.12C2359.02 1563.38 2362.45 1559.77 2364.1 1555.28C2365.83 1550.71 2366.7 1543.12 2366.7 1532.51V1415.88H2404.3Z" fill="white"/>
<path d="M2941.46 1485.58L2895.5 1488.46C2894.86 1462.03 2884.57 1448.81 2864.63 1448.81C2841.76 1448.81 2830.33 1469.16 2830.33 1509.87C2830.33 1533.38 2833.44 1549.34 2839.66 1557.75C2845.88 1566.08 2854.57 1570.24 2865.72 1570.24C2883.84 1570.24 2894.9 1558.44 2898.93 1534.84L2941.46 1537.45C2938.72 1559.86 2930.35 1576.92 2916.35 1588.62C2902.45 1600.24 2885.39 1606.05 2865.18 1606.05C2840.39 1606.05 2820.22 1597.5 2804.67 1580.39C2789.21 1563.29 2781.48 1539.64 2781.48 1509.46C2781.48 1481.19 2788.98 1458.05 2803.98 1440.03C2818.98 1422.01 2839.47 1413 2865.45 1413C2910.45 1413 2935.79 1437.19 2941.46 1485.58Z" fill="white"/>
<path d="M3361.87 1415.88V1603.17H3318.1V1415.88H3361.87Z" fill="white"/>
<path d="M3821.23 1606.05C3795.99 1606.05 3776.46 1596.58 3762.65 1577.65C3748.83 1558.71 3741.93 1535.8 3741.93 1508.91C3741.93 1481.56 3748.93 1458.74 3762.92 1440.44C3776.92 1422.15 3796.86 1413 3822.74 1413C3848.9 1413 3868.62 1422.79 3881.88 1442.36C3895.23 1461.85 3901.91 1484.16 3901.91 1509.32C3901.91 1536.49 3895.05 1559.4 3881.33 1578.06C3867.61 1596.72 3847.58 1606.05 3821.23 1606.05ZM3822.47 1448.81C3799.42 1448.81 3787.89 1469.03 3787.89 1509.46C3787.89 1549.98 3799.42 1570.24 3822.47 1570.24C3844.79 1570.24 3855.95 1550.02 3855.95 1509.59C3855.95 1469.07 3844.79 1448.81 3822.47 1448.81Z" fill="white"/>
<path d="M4426.04 1415.88V1603.17H4388.59L4315.18 1476.66C4315.27 1479.87 4315.36 1481.97 4315.45 1482.98C4315.82 1486.18 4316 1488.88 4316 1491.07V1603.17H4281.84V1415.88H4329.17L4392.98 1526.33C4392.43 1520.84 4392.15 1516.68 4392.15 1513.85V1415.88H4426.04Z" fill="white"/>
<path d="M4948.53 1451.56H4859.21V1489.97H4929.46V1525.24H4859.21V1566.12H4948.53V1603.17H4814.61V1415.88H4948.53V1451.56Z" fill="white"/>
<path d="M5455.64 1457.04L5418.32 1469.53C5413.29 1454.71 5402.64 1447.3 5386.35 1447.3C5368.98 1447.3 5360.29 1452.93 5360.29 1464.18C5360.29 1468.66 5361.89 1472.46 5365.09 1475.57C5368.38 1478.68 5375.74 1481.37 5387.18 1483.66C5406.3 1487.5 5420.29 1491.39 5429.16 1495.32C5438.04 1499.26 5445.49 1505.61 5451.53 1514.4C5457.66 1523.09 5460.72 1532.83 5460.72 1543.62C5460.72 1560.54 5454.18 1575.18 5441.1 1587.53C5428.11 1599.88 5408.81 1606.05 5383.2 1606.05C5363.99 1606.05 5347.62 1601.71 5334.08 1593.02C5320.63 1584.23 5311.76 1571.25 5307.46 1554.05L5348.07 1544.86C5352.65 1562.33 5365.36 1571.06 5386.22 1571.06C5396.28 1571.06 5403.78 1569.14 5408.72 1565.3C5413.66 1561.37 5416.13 1556.7 5416.13 1551.3C5416.13 1545.82 5413.89 1541.56 5409.41 1538.54C5404.92 1535.53 5396.28 1532.69 5383.47 1530.04C5359.6 1525.1 5342.59 1518.38 5332.43 1509.87C5322.28 1501.27 5317.2 1488.74 5317.2 1472.27C5317.2 1455.63 5323.24 1441.58 5335.31 1430.15C5347.48 1418.72 5363.94 1413 5384.71 1413C5421.48 1413 5445.13 1427.68 5455.64 1457.04Z" fill="white"/>
<path d="M847.684 1457.04L810.363 1469.53C805.332 1454.71 794.676 1447.3 778.394 1447.3C761.014 1447.3 752.325 1452.93 752.325 1464.18C752.325 1468.66 753.925 1472.46 757.127 1475.57C760.42 1478.68 767.783 1481.37 779.217 1483.66C798.335 1487.5 812.33 1491.39 821.203 1495.32C830.075 1499.26 837.53 1505.61 843.567 1514.4C849.696 1523.09 852.76 1532.83 852.76 1543.62C852.76 1560.54 846.22 1575.18 833.14 1587.53C820.151 1599.88 800.85 1606.05 775.238 1606.05C756.029 1606.05 739.656 1601.71 726.118 1593.02C712.672 1584.23 703.799 1571.25 699.5 1554.05L740.113 1544.86C744.687 1562.33 757.401 1571.06 778.257 1571.06C788.319 1571.06 795.819 1569.14 800.759 1565.3C805.698 1561.37 808.168 1556.7 808.168 1551.3C808.168 1545.82 805.927 1541.56 801.445 1538.54C796.963 1535.53 788.319 1532.69 775.513 1530.04C751.639 1525.1 734.625 1518.38 724.472 1509.87C714.318 1501.27 709.242 1488.74 709.242 1472.27C709.242 1455.63 715.279 1441.58 727.353 1430.15C739.519 1418.72 755.984 1413 776.748 1413C813.519 1413 837.164 1427.68 847.684 1457.04Z" stroke="white" stroke-width="2" mask="url(#path-3-outside-3_20_42)"/>
<path d="M1303.21 1606.05C1277.96 1606.05 1258.44 1596.58 1244.62 1577.65C1230.81 1558.71 1223.91 1535.8 1223.91 1508.91C1223.91 1481.56 1230.9 1458.74 1244.9 1440.44C1258.89 1422.15 1278.83 1413 1304.72 1413C1330.88 1413 1350.59 1422.79 1363.86 1442.36C1377.21 1461.85 1383.89 1484.16 1383.89 1509.32C1383.89 1536.49 1377.03 1559.4 1363.31 1578.06C1349.59 1596.72 1329.55 1606.05 1303.21 1606.05ZM1304.45 1448.81C1281.4 1448.81 1269.87 1469.03 1269.87 1509.46C1269.87 1549.98 1281.4 1570.24 1304.45 1570.24C1326.76 1570.24 1337.92 1550.02 1337.92 1509.59C1337.92 1469.07 1326.76 1448.81 1304.45 1448.81Z" stroke="white" stroke-width="2" mask="url(#path-3-outside-3_20_42)"/>
<path d="M1808.27 1566.12H1882.77V1603.17H1763.81V1415.88H1808.27V1566.12Z" stroke="white" stroke-width="2" mask="url(#path-3-outside-3_20_42)"/>
<path d="M2404.3 1415.88V1532.51C2404.3 1551.35 2402.15 1565.39 2397.85 1574.63C2393.55 1583.78 2385.59 1591.32 2373.97 1597.27C2362.45 1603.12 2347.68 1606.05 2329.66 1606.05C2311.64 1606.05 2297.28 1603.4 2286.57 1598.09C2275.96 1592.79 2268.01 1585.24 2262.7 1575.45C2257.39 1565.67 2254.74 1551.35 2254.74 1532.51V1415.88H2302.35V1532.51C2302.35 1542.57 2303.18 1549.98 2304.82 1554.73C2306.56 1559.49 2309.94 1563.29 2314.98 1566.12C2320.1 1568.87 2326.36 1570.24 2333.77 1570.24C2342.01 1570.24 2348.68 1568.87 2353.81 1566.12C2359.02 1563.38 2362.45 1559.77 2364.1 1555.28C2365.83 1550.71 2366.7 1543.12 2366.7 1532.51V1415.88H2404.3Z" stroke="white" stroke-width="2" mask="url(#path-3-outside-3_20_42)"/>
<path d="M2941.46 1485.58L2895.5 1488.46C2894.86 1462.03 2884.57 1448.81 2864.63 1448.81C2841.76 1448.81 2830.33 1469.16 2830.33 1509.87C2830.33 1533.38 2833.44 1549.34 2839.66 1557.75C2845.88 1566.08 2854.57 1570.24 2865.72 1570.24C2883.84 1570.24 2894.9 1558.44 2898.93 1534.84L2941.46 1537.45C2938.72 1559.86 2930.35 1576.92 2916.35 1588.62C2902.45 1600.24 2885.39 1606.05 2865.18 1606.05C2840.39 1606.05 2820.22 1597.5 2804.67 1580.39C2789.21 1563.29 2781.48 1539.64 2781.48 1509.46C2781.48 1481.19 2788.98 1458.05 2803.98 1440.03C2818.98 1422.01 2839.47 1413 2865.45 1413C2910.45 1413 2935.79 1437.19 2941.46 1485.58Z" stroke="white" stroke-width="2" mask="url(#path-3-outside-3_20_42)"/>
<path d="M3361.87 1415.88V1603.17H3318.1V1415.88H3361.87Z" stroke="white" stroke-width="2" mask="url(#path-3-outside-3_20_42)"/>
<path d="M3821.23 1606.05C3795.99 1606.05 3776.46 1596.58 3762.65 1577.65C3748.83 1558.71 3741.93 1535.8 3741.93 1508.91C3741.93 1481.56 3748.93 1458.74 3762.92 1440.44C3776.92 1422.15 3796.86 1413 3822.74 1413C3848.9 1413 3868.62 1422.79 3881.88 1442.36C3895.23 1461.85 3901.91 1484.16 3901.91 1509.32C3901.91 1536.49 3895.05 1559.4 3881.33 1578.06C3867.61 1596.72 3847.58 1606.05 3821.23 1606.05ZM3822.47 1448.81C3799.42 1448.81 3787.89 1469.03 3787.89 1509.46C3787.89 1549.98 3799.42 1570.24 3822.47 1570.24C3844.79 1570.24 3855.95 1550.02 3855.95 1509.59C3855.95 1469.07 3844.79 1448.81 3822.47 1448.81Z" stroke="white" stroke-width="2" mask="url(#path-3-outside-3_20_42)"/>
<path d="M4426.04 1415.88V1603.17H4388.59L4315.18 1476.66C4315.27 1479.87 4315.36 1481.97 4315.45 1482.98C4315.82 1486.18 4316 1488.88 4316 1491.07V1603.17H4281.84V1415.88H4329.17L4392.98 1526.33C4392.43 1520.84 4392.15 1516.68 4392.15 1513.85V1415.88H4426.04Z" stroke="white" stroke-width="2" mask="url(#path-3-outside-3_20_42)"/>
<path d="M4948.53 1451.56H4859.21V1489.97H4929.46V1525.24H4859.21V1566.12H4948.53V1603.17H4814.61V1415.88H4948.53V1451.56Z" stroke="white" stroke-width="2" mask="url(#path-3-outside-3_20_42)"/>
<path d="M5455.64 1457.04L5418.32 1469.53C5413.29 1454.71 5402.64 1447.3 5386.35 1447.3C5368.98 1447.3 5360.29 1452.93 5360.29 1464.18C5360.29 1468.66 5361.89 1472.46 5365.09 1475.57C5368.38 1478.68 5375.74 1481.37 5387.18 1483.66C5406.3 1487.5 5420.29 1491.39 5429.16 1495.32C5438.04 1499.26 5445.49 1505.61 5451.53 1514.4C5457.66 1523.09 5460.72 1532.83 5460.72 1543.62C5460.72 1560.54 5454.18 1575.18 5441.1 1587.53C5428.11 1599.88 5408.81 1606.05 5383.2 1606.05C5363.99 1606.05 5347.62 1601.71 5334.08 1593.02C5320.63 1584.23 5311.76 1571.25 5307.46 1554.05L5348.07 1544.86C5352.65 1562.33 5365.36 1571.06 5386.22 1571.06C5396.28 1571.06 5403.78 1569.14 5408.72 1565.3C5413.66 1561.37 5416.13 1556.7 5416.13 1551.3C5416.13 1545.82 5413.89 1541.56 5409.41 1538.54C5404.92 1535.53 5396.28 1532.69 5383.47 1530.04C5359.6 1525.1 5342.59 1518.38 5332.43 1509.87C5322.28 1501.27 5317.2 1488.74 5317.2 1472.27C5317.2 1455.63 5323.24 1441.58 5335.31 1430.15C5347.48 1418.72 5363.94 1413 5384.71 1413C5421.48 1413 5445.13 1427.68 5455.64 1457.04Z" stroke="white" stroke-width="2" mask="url(#path-3-outside-3_20_42)"/>
<path d="M0 1692.17H6101" stroke="white" stroke-width="40"/>
</svg>
